League Spartan TF.ufo
<glyph name="one" format="1">
  <advance width="393"/>
  <unicode hex="0031"/>
  <outline>
    <contour>
      <point x="145" y="0" type="line"/>
      <point x="333" y="0" type="line"/>
      <point x="333" y="825" type="line"/>
      <point x="244" y="825" type="line"/>
      <point x="29" y="693" type="line"/>
      <point x="29" y="507" type="line"/>
      <point x="145" y="575" type="line"/>
    </contour>
  </outline>
</glyph>
<glyph name="two" format="1">
  <advance width="724"/>
  <unicode hex="0032"/>
  <outline>
    <contour>
      <point x="435" y="681"/>
      <point x="454" y="613"/>
      <point x="454" y="550" type="curve" smooth="yes"/>
      <point x="454" y="398"/>
      <point x="36" y="139"/>
      <point x="36" y="139" type="curve"/>
      <point x="36" y="0" type="line"/>
      <point x="669" y="0" type="line"/>
      <point x="669" y="165" type="line"/>
      <point x="328" y="165" type="line" smooth="yes"/>
      <point x="328" y="165"/>
      <point x="654" y="330"/>
      <point x="654" y="550" type="curve" smooth="yes"/>
      <point x="654" y="654"/>
      <point x="617" y="840"/>
      <point x="334" y="840" type="curve" smooth="yes"/>
      <point x="110" y="840"/>
      <point x="30" y="600"/>
      <point x="30" y="600" type="curve"/>
      <point x="187" y="524" type="line"/>
      <point x="187" y="524"/>
      <point x="234" y="681"/>
      <point x="344" y="681" type="curve" smooth="yes"/>
    </contour>
  </outline>
</glyph>
<glyph name="four" format="1">
  <advance width="636"/>
  <unicode hex="0034"/>
  <outline>
    <contour>
      <point x="341" y="825" type="line"/>
      <point x="11" y="329" type="line"/>
      <point x="11" y="174" type="line"/>
      <point x="351" y="174" type="line"/>
      <point x="351" y="0" type="line"/>
      <point x="527" y="0" type="line"/>
      <point x="527" y="174" type="line"/>
      <point x="623" y="174" type="line"/>
      <point x="623" y="339" type="line"/>
      <point x="527" y="339" type="line"/>
      <point x="527" y="825" type="line"/>
    </contour>
    <contour>
      <point x="202" y="339" type="line"/>
      <point x="349" y="574" type="line"/>
      <point x="351" y="574" type="line"/>
      <point x="351" y="339" type="line"/>
    </contour>
  </outline>
</glyph>
<glyph name="five" format="1">
  <advance width="641"/>
  <unicode hex="0035"/>
  <outline>
    <contour>
      <point x="18" y="164" type="line"/>
      <point x="49" y="80"/>
      <point x="136" y="-15"/>
      <point x="312" y="-15" type="curve" smooth="yes"/>
      <point x="489" y="-15"/>
      <point x="618" y="98"/>
      <point x="618" y="256" type="curve" smooth="yes"/>
      <point x="618" y="485"/>
      <point x="466" y="546"/>
      <point x="310" y="546" type="curve" smooth="yes"/>
      <point x="286" y="546"/>
      <point x="262" y="539"/>
      <point x="262" y="539" type="curve"/>
      <point x="280" y="660" type="line"/>
      <point x="565" y="660" type="line"/>
      <point x="565" y="825" type="line"/>
      <point x="124" y="825" type="line"/>
      <point x="55" y="381" type="line"/>
      <point x="226" y="359" type="line"/>
      <point x="226" y="359"/>
      <point x="254" y="397"/>
      <point x="311" y="402" type="curve"/>
      <point x="402" y="407"/>
      <point x="430" y="347"/>
      <point x="430" y="266" type="curve" smooth="yes"/>
      <point x="430" y="191"/>
      <point x="380" y="142"/>
      <point x="312" y="142" type="curve" smooth="yes"/>
      <point x="226" y="142"/>
      <point x="182" y="185"/>
      <point x="167" y="236" type="curve"/>
    </contour>
  </outline>
</glyph>
<glyph name="six" format="1">
  <advance width="689"/>
  <unicode hex="0036"/>
  <outline>
    <contour>
      <point x="519" y="-15"/>
      <point x="648" y="103"/>
      <point x="648" y="267" type="curve" smooth="yes"/>
      <point x="648" y="434"/>
      <point x="512" y="552"/>
      <point x="363" y="552" type="curve" smooth="yes"/>
      <point x="332" y="552"/>
      <point x="282" y="537"/>
      <point x="253" y="527" type="curve" smooth="yes"/>
      <point x="126" y="485"/>
      <point x="35" y="370"/>
      <point x="35" y="267" type="curve" smooth="yes"/>
      <point x="35" y="103"/>
      <point x="159" y="-15"/>
      <point x="343" y="-15" type="curve" smooth="yes"/>
    </contour>
    <contour>
      <point x="267" y="143"/>
      <point x="216" y="194"/>
      <point x="216" y="268" type="curve" smooth="yes"/>
      <point x="216" y="342"/>
      <point x="272" y="394"/>
      <point x="344" y="394" type="curve" smooth="yes"/>
      <point x="414" y="394"/>
      <point x="471" y="342"/>
      <point x="471" y="268" type="curve" smooth="yes"/>
      <point x="471" y="194"/>
      <point x="417" y="143"/>
      <point x="344" y="143" type="curve" smooth="yes"/>
    </contour>
    <contour>
      <point x="66" y="486"/>
      <point x="35" y="383"/>
      <point x="35" y="267" type="curve"/>
      <point x="291" y="521" type="line"/>
      <point x="312" y="535"/>
      <point x="336" y="553"/>
      <point x="347" y="566" type="curve"/>
      <point x="569" y="825" type="line"/>
      <point x="341" y="825" type="line"/>
      <point x="153" y="594" type="line"/>
    </contour>
  </outline>
</glyph>
<glyph name="seven" format="1">
  <advance width="678"/>
  <unicode hex="0037"/>
  <outline>
    <contour>
      <point x="80" y="660" type="line"/>
      <point x="435" y="660" type="line"/>
      <point x="55" y="0" type="line"/>
      <point x="277" y="0" type="line"/>
      <point x="655" y="667" type="line"/>
      <point x="655" y="825" type="line"/>
      <point x="80" y="825" type="line"/>
    </contour>
  </outline>
</glyph>
<glyph name="nine" format="1">
  <advance width="689"/>
  <unicode hex="0039"/>
  <outline>
    <contour>
      <point x="162" y="840"/>
      <point x="33" y="722"/>
      <point x="33" y="558" type="curve" smooth="yes"/>
      <point x="33" y="391"/>
      <point x="169" y="273"/>
      <point x="318" y="273" type="curve" smooth="yes"/>
      <point x="349" y="273"/>
      <point x="399" y="288"/>
      <point x="428" y="298" type="curve" smooth="yes"/>
      <point x="555" y="340"/>
      <point x="646" y="460"/>
      <point x="646" y="558" type="curve" smooth="yes"/>
      <point x="646" y="728"/>
      <point x="522" y="840"/>
      <point x="338" y="840" type="curve" smooth="yes"/>
    </contour>
    <contour>
      <point x="414" y="682"/>
      <point x="465" y="631"/>
      <point x="465" y="557" type="curve" smooth="yes"/>
      <point x="465" y="483"/>
      <point x="409" y="431"/>
      <point x="337" y="431" type="curve" smooth="yes"/>
      <point x="267" y="431"/>
      <point x="210" y="483"/>
      <point x="210" y="557" type="curve" smooth="yes"/>
      <point x="210" y="631"/>
      <point x="264" y="682"/>
      <point x="337" y="682" type="curve" smooth="yes"/>
    </contour>
    <contour>
      <point x="615" y="339"/>
      <point x="646" y="447"/>
      <point x="646" y="558" type="curve"/>
      <point x="390" y="304" type="line"/>
      <point x="369" y="290"/>
      <point x="345" y="272"/>
      <point x="334" y="259" type="curve"/>
      <point x="112" y="0" type="line"/>
      <point x="340" y="0" type="line"/>
      <point x="528" y="231" type="line"/>
    </contour>
  </outline>
</glyph>
<glyph name="B" format="1">
  <advance width="666"/>
  <unicode hex="0042"/>
  <outline>
    <contour>
      <point x="60" y="0" type="line"/>
      <point x="377" y="0" type="line" smooth="yes"/>
      <point x="548" y="0"/>
      <point x="643" y="94"/>
      <point x="643" y="230" type="curve" smooth="yes"/>
      <point x="643" y="363"/>
      <point x="580" y="420"/>
      <point x="477" y="438" type="curve"/>
      <point x="548" y="455"/>
      <point x="608" y="518"/>
      <point x="608" y="615" type="curve" smooth="yes"/>
      <point x="608" y="772"/>
      <point x="486" y="825"/>
      <point x="344" y="825" type="curve" smooth="yes"/>
      <point x="60" y="825" type="line"/>
    </contour>
    <contour>
      <point x="248" y="340" type="line"/>
      <point x="307" y="340" type="line" smooth="yes"/>
      <point x="396" y="340"/>
      <point x="445" y="313"/>
      <point x="445" y="237" type="curve" smooth="yes"/>
      <point x="445" y="172"/>
      <point x="396" y="145"/>
      <point x="307" y="145" type="curve" smooth="yes"/>
      <point x="248" y="145" type="line"/>
    </contour>
    <contour>
      <point x="248" y="680" type="line"/>
      <point x="301" y="680" type="line" smooth="yes"/>
      <point x="383" y="680"/>
      <point x="422" y="655"/>
      <point x="422" y="596" type="curve" smooth="yes"/>
      <point x="422" y="527"/>
      <point x="382" y="502"/>
      <point x="301" y="502" type="curve" smooth="yes"/>
      <point x="248" y="502" type="line"/>
    </contour>
  </outline>
</glyph>
<glyph name="D" format="1">
  <advance width="722"/>
  <unicode hex="0044"/>
  <outline>
    <contour>
      <point x="60" y="0" type="line"/>
      <point x="309" y="0" type="line" smooth="yes"/>
      <point x="536" y="0"/>
      <point x="700" y="172"/>
      <point x="700" y="413" type="curve" smooth="yes"/>
      <point x="700" y="653"/>
      <point x="535" y="825"/>
      <point x="309" y="825" type="curve" smooth="yes"/>
      <point x="60" y="825" type="line"/>
    </contour>
    <contour>
      <point x="287" y="657" type="line" smooth="yes"/>
      <point x="427" y="657"/>
      <point x="502" y="550"/>
      <point x="502" y="412" type="curve" smooth="yes"/>
      <point x="501" y="274"/>
      <point x="426" y="168"/>
      <point x="287" y="168" type="curve" smooth="yes"/>
      <point x="248" y="168" type="line"/>
      <point x="248" y="657" type="line"/>
    </contour>
  </outline>
</glyph>
<glyph name="E" format="1">
  <advance width="600"/>
  <unicode hex="0045"/>
  <outline>
    <contour>
      <point x="60" y="0" type="line"/>
      <point x="552" y="0" type="line"/>
      <point x="552" y="165" type="line"/>
      <point x="248" y="165" type="line"/>
      <point x="248" y="331" type="line"/>
      <point x="540" y="331" type="line"/>
      <point x="540" y="496" type="line"/>
      <point x="248" y="496" type="line"/>
      <point x="248" y="660" type="line"/>
      <point x="552" y="660" type="line"/>
      <point x="552" y="825" type="line"/>
      <point x="60" y="825" type="line"/>
    </contour>
  </outline>
</glyph>
<glyph name="G" format="1">
  <advance width="829"/>
  <unicode hex="0047"/>
  <outline>
    <contour>
      <point x="425" y="317" type="line"/>
      <point x="615" y="317" type="line"/>
      <point x="615" y="216"/>
      <point x="539" y="161"/>
      <point x="436" y="161" type="curve" smooth="yes"/>
      <point x="320" y="161"/>
      <point x="226" y="272"/>
      <point x="226" y="412" type="curve" smooth="yes"/>
      <point x="226" y="555"/>
      <point x="320" y="667"/>
      <point x="436" y="667" type="curve" smooth="yes"/>
      <point x="509" y="667"/>
      <point x="572" y="641"/>
      <point x="620" y="564" type="curve"/>
      <point x="743" y="699" type="line"/>
      <point x="671" y="786"/>
      <point x="570" y="840"/>
      <point x="425" y="840" type="curve" smooth="yes"/>
      <point x="193" y="840"/>
      <point x="23" y="649"/>
      <point x="23" y="412" type="curve" smooth="yes"/>
      <point x="23" y="176"/>
      <point x="203" y="-15"/>
      <point x="425" y="-15" type="curve" smooth="yes"/>
      <point x="774" y="-15"/>
      <point x="802" y="290"/>
      <point x="810" y="324" type="curve"/>
      <point x="810" y="462" type="line"/>
      <point x="425" y="462" type="line"/>
    </contour>
  </outline>
</glyph>
<glyph name="K" format="1">
  <advance width="761"/>
  <unicode hex="004B"/>
  <outline>
    <contour>
      <point x="729" y="825" type="line"/>
      <point x="501" y="825" type="line"/>
      <point x="248" y="488" type="line"/>
      <point x="248" y="825" type="line"/>
      <point x="60" y="825" type="line"/>
      <point x="60" y="0" type="line"/>
      <point x="248" y="0" type="line"/>
      <point x="248" y="360" type="line"/>
      <point x="522" y="0" type="line"/>
      <point x="761" y="0" type="line"/>
      <point x="417" y="434" type="line"/>
    </contour>
  </outline>
</glyph>
<glyph name="M" format="1">
  <advance width="908"/>
  <unicode hex="004D"/>
  <outline>
    <contour>
      <point x="670" y="825" type="line"/>
      <point x="455" y="301" type="line"/>
      <point x="449" y="279" type="line"/>
      <point x="443" y="301" type="line"/>
      <point x="228" y="825" type="line"/>
      <point x="218" y="825" type="line"/>
      <point x="30" y="825" type="line"/>
      <point x="30" y="0" type="line"/>
      <point x="218" y="0" type="line"/>
      <point x="218" y="461" type="line"/>
      <point x="226" y="423" type="line"/>
      <point x="383" y="0" type="line"/>
      <point x="515" y="0" type="line"/>
      <point x="672" y="423" type="line"/>
      <point x="680" y="461" type="line"/>
      <point x="680" y="0" type="line"/>
      <point x="868" y="0" type="line"/>
      <point x="868" y="825" type="line"/>
    </contour>
  </outline>
</glyph>
<glyph name="Q" format="1">
  <advance width="867"/>
  <unicode hex="0051"/>
  <outline>
    <contour>
      <point x="226" y="536"/>
      <point x="294" y="659"/>
      <point x="439" y="659" type="curve" smooth="yes"/>
      <point x="585" y="659"/>
      <point x="651" y="536"/>
      <point x="651" y="413" type="curve" smooth="yes"/>
      <point x="651" y="290"/>
      <point x="589" y="167"/>
      <point x="439" y="167" type="curve" smooth="yes"/>
      <point x="285" y="167"/>
      <point x="226" y="290"/>
      <point x="226" y="413" type="curve" smooth="yes"/>
    </contour>
    <contour>
      <point x="23" y="172"/>
      <point x="195" y="-15"/>
      <point x="439" y="-15" type="curve" smooth="yes"/>
      <point x="676" y="-15"/>
      <point x="854" y="172"/>
      <point x="854" y="413" type="curve" smooth="yes"/>
      <point x="854" y="654"/>
      <point x="668" y="840"/>
      <point x="439" y="840" type="curve" smooth="yes"/>
      <point x="212" y="840"/>
      <point x="23" y="654"/>
      <point x="23" y="413" type="curve" smooth="yes"/>
    </contour>
    <contour>
      <point x="655" y="-104" type="line"/>
      <point x="860" y="-104" type="line"/>
      <point x="631" y="288" type="line"/>
      <point x="426" y="288" type="line"/>
    </contour>
  </outline>
</glyph>
<glyph name="U" format="1">
  <advance width="744"/>
  <unicode hex="0055"/>
  <outline>
    <contour>
      <point x="506" y="388" type="line" smooth="yes"/>
      <point x="506" y="230"/>
      <point x="464" y="170"/>
      <point x="372" y="170" type="curve" smooth="yes"/>
      <point x="280" y="170"/>
      <point x="238" y="230"/>
      <point x="238" y="388" type="curve" smooth="yes"/>
      <point x="238" y="825" type="line"/>
      <point x="50" y="825" type="line"/>
      <point x="50" y="333" type="line" smooth="yes"/>
      <point x="50" y="129"/>
      <point x="162" y="-15"/>
      <point x="372" y="-15" type="curve" smooth="yes"/>
      <point x="582" y="-15"/>
      <point x="694" y="129"/>
      <point x="694" y="333" type="curve" smooth="yes"/>
      <point x="694" y="825" type="line"/>
      <point x="506" y="825" type="line"/>
    </contour>
  </outline>
</glyph>
<glyph name="V" format="1">
  <advance width="784"/>
  <unicode hex="0056"/>
  <outline>
    <contour>
      <point x="792" y="825" type="line"/>
      <point x="580" y="825" type="line"/>
      <point x="392" y="303" type="line"/>
      <point x="204" y="825" type="line"/>
      <point x="-8" y="825" type="line"/>
      <point x="315" y="0" type="line"/>
      <point x="469" y="0" type="line"/>
    </contour>
  </outline>
</glyph>
<glyph name="Y" format="1">
  <advance width="736"/>
  <unicode hex="0059"/>
  <outline>
    <contour>
      <point x="274" y="0" type="line"/>
      <point x="462" y="0" type="line"/>
      <point x="462" y="370" type="line"/>
      <point x="746" y="825" type="line"/>
      <point x="520" y="825" type="line"/>
      <point x="368" y="561" type="line"/>
      <point x="216" y="825" type="line"/>
      <point x="-10" y="825" type="line"/>
      <point x="274" y="370" type="line"/>
    </contour>
  </outline>
</glyph>
<glyph name="b" format="1">
  <advance width="683"/>
  <unicode hex="0062"/>
  <outline>
    <contour>
      <point x="305" y="528"/>
      <point x="252" y="475"/>
      <point x="236" y="444" type="curve"/>
      <point x="237" y="860" type="line"/>
      <point x="60" y="860" type="line"/>
      <point x="60" y="0" type="line"/>
      <point x="61" y="0" type="line"/>
      <point x="235" y="0" type="line"/>
      <point x="235" y="78" type="line"/>
      <point x="236" y="78" type="line"/>
      <point x="247" y="52"/>
      <point x="304" y="-15"/>
      <point x="404" y="-15" type="curve" smooth="yes"/>
      <point x="554" y="-15"/>
      <point x="659" y="106"/>
      <point x="659" y="256" type="curve" smooth="yes"/>
      <point x="659" y="406"/>
      <point x="554" y="528"/>
      <point x="404" y="528" type="curve" smooth="yes"/>
    </contour>
    <contour>
      <point x="285" y="136"/>
      <point x="239" y="186"/>
      <point x="239" y="256" type="curve" smooth="yes"/>
      <point x="239" y="327"/>
      <point x="288" y="377"/>
      <point x="354" y="377" type="curve" smooth="yes"/>
      <point x="421" y="377"/>
      <point x="474" y="327"/>
      <point x="474" y="256" type="curve" smooth="yes"/>
      <point x="474" y="186"/>
      <point x="426" y="136"/>
      <point x="354" y="136" type="curve" smooth="yes"/>
    </contour>
  </outline>
</glyph>
<glyph name="c" format="1">
  <advance width="487"/>
  <unicode hex="0063"/>
  <outline>
    <contour>
      <point x="253" y="136"/>
      <point x="200" y="186"/>
      <point x="200" y="257" type="curve" smooth="yes"/>
      <point x="200" y="327"/>
      <point x="253" y="377"/>
      <point x="320" y="377" type="curve" smooth="yes"/>
      <point x="346" y="377"/>
      <point x="369" y="370"/>
      <point x="388" y="356" type="curve"/>
      <point x="469" y="490" type="line"/>
      <point x="426" y="514"/>
      <point x="374" y="528"/>
      <point x="319" y="528" type="curve" smooth="yes"/>
      <point x="146" y="528"/>
      <point x="30" y="415"/>
      <point x="30" y="258" type="curve" smooth="yes"/>
      <point x="30" y="257"/>
      <point x="30" y="257"/>
      <point x="30" y="257" type="curve"/>
      <point x="30" y="255" type="line" smooth="yes"/>
      <point x="30" y="98"/>
      <point x="146" y="-15"/>
      <point x="319" y="-15" type="curve" smooth="yes"/>
      <point x="374" y="-15"/>
      <point x="426" y="-1"/>
      <point x="469" y="23" type="curve"/>
      <point x="388" y="157" type="line"/>
      <point x="369" y="143"/>
      <point x="346" y="136"/>
      <point x="320" y="136" type="curve" smooth="yes"/>
    </contour>
  </outline>
</glyph>
<glyph name="d" format="1">
  <advance width="683"/>
  <unicode hex="0064"/>
  <outline>
    <contour>
      <point x="129" y="528"/>
      <point x="24" y="406"/>
      <point x="24" y="256" type="curve" smooth="yes"/>
      <point x="24" y="106"/>
      <point x="129" y="-15"/>
      <point x="279" y="-15" type="curve" smooth="yes"/>
      <point x="379" y="-15"/>
      <point x="436" y="52"/>
      <point x="447" y="78" type="curve"/>
      <point x="448" y="78" type="line"/>
      <point x="448" y="0" type="line"/>
      <point x="622" y="0" type="line"/>
      <point x="623" y="0" type="line"/>
      <point x="623" y="860" type="line"/>
      <point x="446" y="860" type="line"/>
      <point x="447" y="444" type="line"/>
      <point x="431" y="475"/>
      <point x="378" y="528"/>
      <point x="279" y="528" type="curve" smooth="yes"/>
    </contour>
    <contour>
      <point x="257" y="136"/>
      <point x="209" y="186"/>
      <point x="209" y="256" type="curve" smooth="yes"/>
      <point x="209" y="327"/>
      <point x="262" y="377"/>
      <point x="329" y="377" type="curve" smooth="yes"/>
      <point x="395" y="377"/>
      <point x="444" y="327"/>
      <point x="444" y="256" type="curve" smooth="yes"/>
      <point x="444" y="186"/>
      <point x="398" y="136"/>
      <point x="329" y="136" type="curve" smooth="yes"/>
    </contour>
  </outline>
</glyph>
<glyph name="e" format="1">
  <advance width="593"/>
  <unicode hex="0065"/>
  <outline>
    <contour>
      <point x="569" y="232" type="line"/>
      <point x="570" y="238"/>
      <point x="570" y="249"/>
      <point x="570" y="256" type="curve" smooth="yes"/>
      <point x="570" y="436"/>
      <point x="459" y="528"/>
      <point x="303" y="528" type="curve" smooth="yes"/>
      <point x="148" y="528"/>
      <point x="23" y="406"/>
      <point x="23" y="256" type="curve" smooth="yes"/>
      <point x="23" y="107"/>
      <point x="144" y="-15"/>
      <point x="299" y="-15" type="curve" smooth="yes"/>
      <point x="443" y="-15"/>
      <point x="503" y="31"/>
      <point x="561" y="109" type="curve"/>
      <point x="433" y="183" type="line"/>
      <point x="390" y="137"/>
      <point x="365" y="126"/>
      <point x="308" y="126" type="curve" smooth="yes"/>
      <point x="263" y="126"/>
      <point x="197" y="153"/>
      <point x="197" y="232" type="curve"/>
    </contour>
    <contour>
      <point x="200" y="330" type="line"/>
      <point x="201" y="375"/>
      <point x="246" y="413"/>
      <point x="307" y="413" type="curve" smooth="yes"/>
      <point x="362" y="413"/>
      <point x="403" y="371"/>
      <point x="405" y="330" type="curve"/>
    </contour>
  </outline>
</glyph>
<glyph name="f" format="1">
  <advance width="375"/>
  <unicode hex="0066"/>
  <outline>
    <contour>
      <point x="6" y="378" type="line"/>
      <point x="90" y="378" type="line"/>
      <point x="90" y="0" type="line"/>
      <point x="267" y="0" type="line"/>
      <point x="267" y="378" type="line"/>
      <point x="375" y="378" type="line"/>
      <point x="375" y="513" type="line"/>
      <point x="267" y="513" type="line"/>
      <point x="267" y="627" type="line" smooth="yes"/>
      <point x="267" y="698"/>
      <point x="300" y="718"/>
      <point x="327" y="718" type="curve" smooth="yes"/>
      <point x="356" y="718"/>
      <point x="369" y="704"/>
      <point x="369" y="704" type="curve"/>
      <point x="422" y="843" type="line"/>
      <point x="422" y="843"/>
      <point x="394" y="875"/>
      <point x="311" y="875" type="curve" smooth="yes"/>
      <point x="193" y="875"/>
      <point x="90" y="792"/>
      <point x="90" y="642" type="curve" smooth="yes"/>
      <point x="90" y="513" type="line"/>
      <point x="6" y="513" type="line"/>
    </contour>
  </outline>
</glyph>
<glyph name="g" format="1">
  <advance width="683"/>
  <unicode hex="0067"/>
  <outline>
    <contour>
      <point x="448" y="0" type="line"/>
      <point x="448" y="0" type="line" smooth="yes"/>
      <point x="448" y="-91"/>
      <point x="392" y="-125"/>
      <point x="321" y="-125" type="curve" smooth="yes"/>
      <point x="244" y="-125"/>
      <point x="201" y="-86"/>
      <point x="182" y="-55" type="curve"/>
      <point x="37" y="-126" type="line"/>
      <point x="91" y="-251"/>
      <point x="214" y="-275"/>
      <point x="321" y="-275" type="curve" smooth="yes"/>
      <point x="496" y="-275"/>
      <point x="623" y="-186"/>
      <point x="623" y="-14" type="curve" smooth="yes"/>
      <point x="623" y="0" type="line"/>
    </contour>
    <contour>
      <point x="23" y="106"/>
      <point x="128" y="-15"/>
      <point x="278" y="-15" type="curve" smooth="yes"/>
      <point x="378" y="-15"/>
      <point x="435" y="52"/>
      <point x="446" y="78" type="curve"/>
      <point x="448" y="78" type="line"/>
      <point x="448" y="0" type="line"/>
      <point x="623" y="0" type="line"/>
      <point x="623" y="513" type="line"/>
      <point x="446" y="513" type="line"/>
      <point x="446" y="444" type="line"/>
      <point x="430" y="475"/>
      <point x="377" y="528"/>
      <point x="278" y="528" type="curve" smooth="yes"/>
      <point x="128" y="528"/>
      <point x="23" y="406"/>
      <point x="23" y="256" type="curve" smooth="yes"/>
    </contour>
    <contour>
      <point x="211" y="327"/>
      <point x="264" y="377"/>
      <point x="331" y="377" type="curve" smooth="yes"/>
      <point x="397" y="377"/>
      <point x="446" y="327"/>
      <point x="446" y="256" type="curve" smooth="yes"/>
      <point x="446" y="186"/>
      <point x="400" y="136"/>
      <point x="331" y="136" type="curve" smooth="yes"/>
      <point x="259" y="136"/>
      <point x="211" y="186"/>
      <point x="211" y="256" type="curve" smooth="yes"/>
    </contour>
  </outline>
</glyph>
<glyph name="h" format="1">
  <advance width="661"/>
  <unicode hex="0068"/>
  <outline>
    <contour>
      <point x="321" y="528"/>
      <point x="253" y="479"/>
      <point x="237" y="435" type="curve"/>
      <point x="237" y="860" type="line"/>
      <point x="60" y="860" type="line"/>
      <point x="60" y="0" type="line"/>
      <point x="237" y="0" type="line"/>
      <point x="237" y="270" type="line" smooth="yes"/>
      <point x="237" y="341"/>
      <point x="289" y="390"/>
      <point x="342" y="390" type="curve" smooth="yes"/>
      <point x="397" y="390"/>
      <point x="434" y="362"/>
      <point x="434" y="293" type="curve" smooth="yes"/>
      <point x="434" y="0" type="line"/>
      <point x="611" y="0" type="line"/>
      <point x="611" y="338" type="line" smooth="yes"/>
      <point x="611" y="486"/>
      <point x="500" y="528"/>
      <point x="406" y="528" type="curve" smooth="yes"/>
    </contour>
  </outline>
</glyph>
<glyph name="m" format="1">
  <advance width="975"/>
  <unicode hex="006D"/>
  <outline>
    <contour>
      <point x="642" y="528"/>
      <point x="580" y="481"/>
      <point x="562" y="438" type="curve"/>
      <point x="531" y="506"/>
      <point x="464" y="528"/>
      <point x="396" y="528" type="curve" smooth="yes"/>
      <point x="311" y="528"/>
      <point x="253" y="479"/>
      <point x="237" y="435" type="curve"/>
      <point x="237" y="513" type="line"/>
      <point x="60" y="513" type="line"/>
      <point x="60" y="0" type="line"/>
      <point x="237" y="0" type="line"/>
      <point x="237" y="270" type="line" smooth="yes"/>
      <point x="237" y="341"/>
      <point x="279" y="390"/>
      <point x="332" y="390" type="curve" smooth="yes"/>
      <point x="387" y="390"/>
      <point x="414" y="362"/>
      <point x="414" y="293" type="curve" smooth="yes"/>
      <point x="414" y="0" type="line"/>
      <point x="576" y="0" type="line"/>
      <point x="576" y="280" type="line" smooth="yes"/>
      <point x="576" y="351"/>
      <point x="608" y="390"/>
      <point x="661" y="390" type="curve" smooth="yes"/>
      <point x="716" y="390"/>
      <point x="743" y="362"/>
      <point x="743" y="293" type="curve" smooth="yes"/>
      <point x="743" y="0" type="line"/>
      <point x="920" y="0" type="line"/>
      <point x="920" y="338" type="line" smooth="yes"/>
      <point x="920" y="486"/>
      <point x="819" y="528"/>
      <point x="725" y="528" type="curve" smooth="yes"/>
    </contour>
  </outline>
</glyph>
<glyph name="o" format="1">
  <advance width="616"/>
  <unicode hex="006F"/>
  <outline>
    <contour>
      <point x="190" y="186"/>
      <point x="238" y="136"/>
      <point x="310" y="136" type="curve" smooth="yes"/>
      <point x="379" y="136"/>
      <point x="429" y="186"/>
      <point x="429" y="256" type="curve" smooth="yes"/>
      <point x="429" y="327"/>
      <point x="376" y="377"/>
      <point x="310" y="377" type="curve" smooth="yes"/>
      <point x="243" y="377"/>
      <point x="190" y="327"/>
      <point x="190" y="256" type="curve" smooth="yes"/>
    </contour>
    <contour>
      <point x="20" y="415"/>
      <point x="147" y="528"/>
      <point x="309" y="528" type="curve" smooth="yes"/>
      <point x="468" y="528"/>
      <point x="596" y="415"/>
      <point x="596" y="255" type="curve" smooth="yes"/>
      <point x="596" y="98"/>
      <point x="475" y="-15"/>
      <point x="309" y="-15" type="curve" smooth="yes"/>
      <point x="136" y="-15"/>
      <point x="20" y="98"/>
      <point x="20" y="255" type="curve" smooth="yes"/>
    </contour>
  </outline>
</glyph>
<glyph name="p" format="1">
  <advance width="683"/>
  <unicode hex="0070"/>
  <outline>
    <contour>
      <point x="554" y="-15"/>
      <point x="659" y="107"/>
      <point x="659" y="257" type="curve" smooth="yes"/>
      <point x="659" y="407"/>
      <point x="554" y="528"/>
      <point x="404" y="528" type="curve" smooth="yes"/>
      <point x="304" y="528"/>
      <point x="247" y="461"/>
      <point x="236" y="435" type="curve"/>
      <point x="235" y="435" type="line"/>
      <point x="235" y="513" type="line"/>
      <point x="61" y="513" type="line"/>
      <point x="60" y="513" type="line"/>
      <point x="60" y="-260" type="line"/>
      <point x="237" y="-260" type="line"/>
      <point x="236" y="69" type="line"/>
      <point x="252" y="38"/>
      <point x="305" y="-15"/>
      <point x="404" y="-15" type="curve" smooth="yes"/>
    </contour>
    <contour>
      <point x="426" y="377"/>
      <point x="474" y="327"/>
      <point x="474" y="257" type="curve" smooth="yes"/>
      <point x="474" y="186"/>
      <point x="421" y="136"/>
      <point x="354" y="136" type="curve" smooth="yes"/>
      <point x="288" y="136"/>
      <point x="239" y="186"/>
      <point x="239" y="257" type="curve" smooth="yes"/>
      <point x="239" y="327"/>
      <point x="285" y="377"/>
      <point x="354" y="377" type="curve" smooth="yes"/>
    </contour>
  </outline>
</glyph>
<glyph name="q" format="1">
  <advance width="683"/>
  <unicode hex="0071"/>
  <outline>
    <contour>
      <point x="378" y="-15"/>
      <point x="431" y="38"/>
      <point x="447" y="69" type="curve"/>
      <point x="446" y="-260" type="line"/>
      <point x="623" y="-260" type="line"/>
      <point x="623" y="513" type="line"/>
      <point x="622" y="513" type="line"/>
      <point x="448" y="513" type="line"/>
      <point x="448" y="435" type="line"/>
      <point x="447" y="435" type="line"/>
      <point x="436" y="461"/>
      <point x="379" y="528"/>
      <point x="279" y="528" type="curve" smooth="yes"/>
      <point x="129" y="528"/>
      <point x="24" y="407"/>
      <point x="24" y="257" type="curve" smooth="yes"/>
      <point x="24" y="107"/>
      <point x="129" y="-15"/>
      <point x="279" y="-15" type="curve" smooth="yes"/>
    </contour>
    <contour>
      <point x="398" y="377"/>
      <point x="444" y="327"/>
      <point x="444" y="257" type="curve" smooth="yes"/>
      <point x="444" y="186"/>
      <point x="395" y="136"/>
      <point x="329" y="136" type="curve" smooth="yes"/>
      <point x="262" y="136"/>
      <point x="209" y="186"/>
      <point x="209" y="257" type="curve" smooth="yes"/>
      <point x="209" y="327"/>
      <point x="257" y="377"/>
      <point x="329" y="377" type="curve" smooth="yes"/>
    </contour>
  </outline>
</glyph>
<glyph name="w" format="1">
  <advance width="946"/>
  <unicode hex="0077"/>
  <outline>
    <contour>
      <point x="611" y="0" type="line"/>
      <point x="731" y="0" type="line"/>
      <point x="946" y="513" type="line"/>
      <point x="742" y="513" type="line"/>
      <point x="662" y="264" type="line"/>
      <point x="534" y="513" type="line"/>
      <point x="412" y="513" type="line"/>
      <point x="283" y="264" type="line"/>
      <point x="204" y="513" type="line"/>
      <point x="0" y="513" type="line"/>
      <point x="215" y="0" type="line"/>
      <point x="335" y="0" type="line"/>
      <point x="473" y="265" type="line"/>
    </contour>
  </outline>
</glyph>
<glyph name="y" format="1">
  <advance width="603"/>
  <unicode hex="0079"/>
  <outline>
    <contour>
      <point x="184" y="513" type="line"/>
      <point x="-10" y="513" type="line"/>
      <point x="223" y="80" type="line"/>
      <point x="56" y="-260" type="line"/>
      <point x="240" y="-260" type="line"/>
      <point x="613" y="513" type="line"/>
      <point x="429" y="513" type="line"/>
      <point x="309" y="266" type="line"/>
    </contour>
  </outline>
</glyph>
<glyph name="Ccedilla" format="1">
  <advance width="753"/>
  <unicode hex="00C7"/>
  <outline>
    <contour>
      <point x="338" y="7" type="line"/>
      <point x="297" y="-121" type="line"/>
      <point x="307" y="-129" type="line"/>
      <point x="307" y="-129"/>
      <point x="322" y="-120"/>
      <point x="358" y="-120" type="curve" smooth="yes"/>
      <point x="386" y="-120"/>
      <point x="420" y="-134"/>
      <point x="420" y="-165" type="curve" smooth="yes"/>
      <point x="420" y="-184"/>
      <point x="407" y="-204"/>
      <point x="370" y="-204" type="curve" smooth="yes"/>
      <point x="324" y="-204"/>
      <point x="288" y="-157"/>
      <point x="288" y="-157" type="curve"/>
      <point x="216" y="-211" type="line"/>
      <point x="216" y="-211"/>
      <point x="280" y="-294"/>
      <point x="370" y="-294" type="curve" smooth="yes"/>
      <point x="481" y="-294"/>
      <point x="522" y="-228"/>
      <point x="522" y="-165" type="curve" smooth="yes"/>
      <point x="522" y="-96"/>
      <point x="448" y="-63"/>
      <point x="393" y="-63" type="curve"/>
      <point x="413" y="-2" type="line"/>
    </contour>
    <component base="C"/>
  </outline>
</glyph>
<glyph name="Edieresis" format="1">
  <advance width="580"/>
  <unicode hex="00CB"/>
  <outline>
    <contour>
      <point x="130" y="1103"/>
      <point x="89" y="1062"/>
      <point x="89" y="1011" type="curve" smooth="yes"/>
      <point x="89" y="960"/>
      <point x="130" y="919"/>
      <point x="181" y="919" type="curve" smooth="yes"/>
      <point x="232" y="919"/>
      <point x="273" y="960"/>
      <point x="273" y="1011" type="curve" smooth="yes"/>
      <point x="273" y="1062"/>
      <point x="232" y="1103"/>
      <point x="181" y="1103" type="curve" smooth="yes"/>
    </contour>
    <contour>
      <point x="367" y="1103"/>
      <point x="326" y="1062"/>
      <point x="326" y="1011" type="curve" smooth="yes"/>
      <point x="326" y="960"/>
      <point x="367" y="919"/>
      <point x="418" y="919" type="curve" smooth="yes"/>
      <point x="469" y="919"/>
      <point x="510" y="960"/>
      <point x="510" y="1011" type="curve" smooth="yes"/>
      <point x="510" y="1062"/>
      <point x="469" y="1103"/>
      <point x="418" y="1103" type="curve" smooth="yes"/>
    </contour>
    <contour>
      <point x="60" y="0" type="line"/>
      <point x="532" y="0" type="line"/>
      <point x="532" y="165" type="line"/>
      <point x="248" y="165" type="line"/>
      <point x="248" y="331" type="line"/>
      <point x="520" y="331" type="line"/>
      <point x="520" y="496" type="line"/>
      <point x="248" y="496" type="line"/>
      <point x="248" y="660" type="line"/>
      <point x="532" y="660" type="line"/>
      <point x="532" y="825" type="line"/>
      <point x="60" y="825" type="line"/>
    </contour>
  </outline>
</glyph>
<glyph name="idieresis" format="1">
  <advance width="297"/>
  <unicode hex="00EF"/>
  <outline>
    <contour>
      <point x="237" y="0" type="line"/>
      <point x="60" y="0" type="line"/>
      <point x="60" y="513" type="line"/>
      <point x="237" y="513" type="line"/>
    </contour>
    <contour>
      <point x="-21" y="791"/>
      <point x="-62" y="750"/>
      <point x="-62" y="699" type="curve" smooth="yes"/>
      <point x="-62" y="648"/>
      <point x="-21" y="607"/>
      <point x="30" y="607" type="curve" smooth="yes"/>
      <point x="81" y="607"/>
      <point x="122" y="648"/>
      <point x="122" y="699" type="curve" smooth="yes"/>
      <point x="122" y="750"/>
      <point x="81" y="791"/>
      <point x="30" y="791" type="curve" smooth="yes"/>
    </contour>
    <contour>
      <point x="216" y="791"/>
      <point x="175" y="750"/>
      <point x="175" y="699" type="curve" smooth="yes"/>
      <point x="175" y="648"/>
      <point x="216" y="607"/>
      <point x="267" y="607" type="curve" smooth="yes"/>
      <point x="318" y="607"/>
      <point x="359" y="648"/>
      <point x="359" y="699" type="curve" smooth="yes"/>
      <point x="359" y="750"/>
      <point x="318" y="791"/>
      <point x="267" y="791" type="curve" smooth="yes"/>
    </contour>
  </outline>
</glyph>
<glyph name="uacute" format="1">
  <advance width="656"/>
  <unicode hex="00FA"/>
  <outline>
    <contour>
      <point x="563" y="725" type="line"/>
      <point x="472" y="840" type="line"/>
      <point x="269" y="664" type="line"/>
      <point x="325" y="587" type="line"/>
    </contour>
    <component base="u"/>
  </outline>
</glyph>
<glyph name="ucircumflex" format="1">
  <advance width="656"/>
  <unicode hex="00FB"/>
  <outline>
    <contour>
      <point x="328" y="699" type="line"/>
      <point x="481" y="587" type="line"/>
      <point x="549" y="678" type="line"/>
      <point x="328" y="840" type="line"/>
      <point x="107" y="678" type="line"/>
      <point x="175" y="587" type="line"/>
    </contour>
    <component base="u"/>
  </outline>
</glyph>
<glyph name="Cacute" format="1">
  <advance width="753"/>
  <unicode hex="0106"/>
  <outline>
    <contour>
      <point x="565" y="1037" type="line"/>
      <point x="474" y="1152" type="line"/>
      <point x="271" y="976" type="line"/>
      <point x="327" y="899" type="line"/>
    </contour>
    <component base="C"/>
  </outline>
</glyph>
<glyph name="Ccaron" format="1">
  <advance width="753"/>
  <unicode hex="010C"/>
  <outline>
    <contour>
      <point x="431" y="899" type="line"/>
      <point x="652" y="1061" type="line"/>
      <point x="584" y="1152" type="line"/>
      <point x="431" y="1040" type="line"/>
      <point x="278" y="1152" type="line"/>
      <point x="210" y="1061" type="line"/>
    </contour>
    <component base="C"/>
  </outline>
</glyph>
<glyph name="Umacron" format="1">
  <advance width="744"/>
  <unicode hex="016A"/>
  <outline>
    <contour>
      <point x="576" y="946" type="line"/>
      <point x="576" y="1066" type="line"/>
      <point x="168" y="1066" type="line"/>
      <point x="168" y="946" type="line"/>
    </contour>
    <component base="U"/>
  </outline>
</glyph>
<glyph name="C.alt" format="1">
  <advance width="723"/>
  <outline>
    <contour>
      <point x="658" y="808" type="line"/>
      <point x="599" y="835"/>
      <point x="554" y="840"/>
      <point x="475" y="840" type="curve" smooth="yes"/>
      <point x="234" y="840"/>
      <point x="23" y="654"/>
      <point x="23" y="413" type="curve" smooth="yes"/>
      <point x="23" y="172"/>
      <point x="216" y="-15"/>
      <point x="475" y="-15" type="curve" smooth="yes"/>
      <point x="545" y="-15"/>
      <point x="600" y="-11"/>
      <point x="658" y="15" type="curve"/>
      <point x="658" y="220" type="line"/>
      <point x="633" y="198"/>
      <point x="591" y="167"/>
      <point x="475" y="167" type="curve" smooth="yes"/>
      <point x="312" y="167"/>
      <point x="234" y="290"/>
      <point x="234" y="413" type="curve" smooth="yes"/>
      <point x="234" y="536"/>
      <point x="321" y="659"/>
      <point x="475" y="659" type="curve" smooth="yes"/>
      <point x="590" y="659"/>
      <point x="633" y="626"/>
      <point x="658" y="603" type="curve"/>
    </contour>
  </outline>
</glyph>
<glyph name="Q.2" format="1">
  <advance width="876"/>
  <outline>
    <contour>
      <point x="896" y="142" type="line"/>
      <point x="847" y="155"/>
      <point x="810" y="169"/>
      <point x="783" y="182" type="curve"/>
      <point x="822" y="248"/>
      <point x="844" y="327"/>
      <point x="844" y="413" type="curve" smooth="yes"/>
      <point x="844" y="654"/>
      <point x="663" y="840"/>
      <point x="434" y="840" type="curve" smooth="yes"/>
      <point x="207" y="840"/>
      <point x="23" y="654"/>
      <point x="23" y="413" type="curve" smooth="yes"/>
      <point x="23" y="172"/>
      <point x="190" y="-15"/>
      <point x="434" y="-15" type="curve" smooth="yes"/>
      <point x="520" y="-15"/>
      <point x="598" y="9"/>
      <point x="662" y="53" type="curve"/>
      <point x="699" y="27"/>
      <point x="752" y="-3"/>
      <point x="813" y="-26" type="curve"/>
    </contour>
    <contour>
      <point x="226" y="536"/>
      <point x="289" y="651"/>
      <point x="434" y="651" type="curve" smooth="yes"/>
      <point x="580" y="651"/>
      <point x="641" y="536"/>
      <point x="641" y="413" type="curve" smooth="yes"/>
      <point x="641" y="363"/>
      <point x="632" y="315"/>
      <point x="611" y="275" type="curve"/>
      <point x="527" y="332"/>
      <point x="471" y="394"/>
      <point x="471" y="394" type="curve"/>
      <point x="391" y="294" type="line"/>
      <point x="409" y="271"/>
      <point x="446" y="226"/>
      <point x="493" y="182" type="curve"/>
      <point x="475" y="177"/>
      <point x="455" y="175"/>
      <point x="434" y="175" type="curve" smooth="yes"/>
      <point x="280" y="175"/>
      <point x="226" y="290"/>
      <point x="226" y="413" type="curve" smooth="yes"/>
    </contour>
  </outline>
</glyph>
